<svg xmlns="http://www.w3.org/2000/svg" viewBox="0 0 512 512" fill="#FFD700">
  <path d="M192 384c-8.188 0-16.38-3.125-22.62-9.375c-12.5-12.5-12.5-32.75 0-45.25L242.8 256l-73.38-73.38c-12.5-12.5-12.5-32.75 0-45.25s32.75-12.5 45.25 0l96 96c12.5 12.5 12.5 32.75 0 45.25l-96 96C208.4 380.9 200.2 384 192 384z"/>
  <path d="M256 32C132.3 32 32 132.3 32 256s100.3 224 224 224s224-100.3 224-224S379.7 32 256 32zM256 80c26.5 0 48 21.5 48 48s-21.5 48-48 48s-48-21.5-48-48S229.5 80 256 80zM160 160c17.7 0 32 14.3 32 32s-14.3 32-32 32s-32-14.3-32-32S142.3 160 160 160zM128 288c-17.7 0-32-14.3-32-32s14.3-32 32-32s32 14.3 32 32S145.7 288 128 288zM160 384c-17.7 0-32-14.3-32-32s14.3-32 32-32s32 14.3 32 32S177.7 384 160 384zM256 432c-26.5 0-48-21.5-48-48s21.5-48 48-48s48 21.5 48 48S282.5 432 256 432zM352 384c-17.7 0-32-14.3-32-32s14.3-32 32-32s32 14.3 32 32S369.7 384 352 384zM384 288c-17.7 0-32-14.3-32-32s14.3-32 32-32s32 14.3 32 32S401.7 288 384 288zM352 224c-17.7 0-32-14.3-32-32s14.3-32 32-32s32 14.3 32 32S369.7 224 352 224z"/>
</svg>
